<svg id="Layer_1" data-name="Layer 1" xmlns="http://www.w3.org/2000/svg" viewBox="0 0 845.76 104.71"><defs><style>.cls-1{fill:#ebb1be;}</style></defs><path class="cls-1" d="M584.66,552.64a51.27,51.27,0,0,0-12.53-5.15q-7.39-2.06-14.73-4.86a29.21,29.21,0,0,1-12.5-9.25q-5.17-6.43-5.17-16.32,0-12.18,9.88-20.8t25.67-8.61a50.36,50.36,0,0,1,12,1.43,44.24,44.24,0,0,1,9.52,3.36,55.26,55.26,0,0,1,6.52,3.93,21.37,21.37,0,0,1,4,3.46l1.27,1.4-13,13.66a31.94,31.94,0,0,0-2.37-2.41,29,29,0,0,0-6.41-3.82,22.64,22.64,0,0,0-10.05-2.38q-6.24,0-10,3.15a9.58,9.58,0,0,0-3.79,7.63q0,5,5.13,8.09a53.07,53.07,0,0,0,12.47,5.15q7.32,2.1,14.73,4.9a29.17,29.17,0,0,1,12.57,9.25q5.16,6.43,5.16,16.32,0,13.93-10.23,22.76t-28.22,8.82a54.54,54.54,0,0,1-13.7-1.71,47.16,47.16,0,0,1-10.91-4.1,66.67,66.67,0,0,1-7.54-4.83,29.84,29.84,0,0,1-4.67-4.13l-1.63-1.76,13.1-12.88c.66.74,1.59,1.71,2.8,2.9s3.88,2.79,8,4.8a29.52,29.52,0,0,0,13,3q7.86,0,12.28-3.64a11.47,11.47,0,0,0,4.43-9.24C589.8,557.4,588.09,554.7,584.66,552.64Z" transform="translate(-536.12 -487.65)"/><path class="cls-1" d="M812.7,488.65q15.82,0,26.24,10A34.52,34.52,0,0,1,839,548q-10.38,10-26.27,10H791.52v33.9h-22V488.65Zm-21.18,19.94V538H812a15.22,15.22,0,0,0,11-4.25,13.94,13.94,0,0,0,4.4-10.43,14.08,14.08,0,0,0-4.4-10.48,15.16,15.16,0,0,0-11-4.28Z" transform="translate(-536.12 -487.65)"/><path class="cls-1" d="M924.24,488.65q15.82,0,26.23,10a34.51,34.51,0,0,1,0,49.38q-10.38,10-26.27,10H903.05v33.9H881V488.65Zm-21.19,19.94V538h20.47a15.19,15.19,0,0,0,11-4.25,13.91,13.91,0,0,0,4.4-10.43,14,14,0,0,0-4.4-10.48,15.13,15.13,0,0,0-11-4.28Z" transform="translate(-536.12 -487.65)"/><path class="cls-1" d="M1250.48,553.19a34.45,34.45,0,0,0,6.92-5.2c.22-.2.43-.41.64-.62l.08-.08a34.53,34.53,0,0,0-.76-48.67q-10.39-10-26.23-10H1187.9V591.87h22V558h20.26l18.53,33.91h23.48ZM1210,538V508.59h20.47a15.16,15.16,0,0,1,11,4.28,16,16,0,0,1,1.88,2.2,13.5,13.5,0,0,1,2,4.46,15.26,15.26,0,0,1,.46,3.82,14,14,0,0,1-1.8,7.11.05.05,0,0,1,0,0,15.1,15.1,0,0,1-2.56,3.28,15.25,15.25,0,0,1-11,4.24Z" transform="translate(-536.12 -487.65)"/><path class="cls-1" d="M1123.71,488.65h22V591.86h-22Z" transform="translate(-536.12 -487.65)"/><polygon class="cls-1" points="523.35 1.17 523.35 40.25 523.35 40.25 523.35 41.03 479.45 41.03 479.45 1.15 457.41 1.15 457.41 104.36 479.45 104.36 479.45 60.54 523.35 60.54 523.35 104.37 545.4 104.37 545.4 1.17 523.35 1.17"/><polygon class="cls-1" points="790.79 84.35 790.79 71.33 790.79 60.52 792.78 60.52 832.52 60.52 832.52 40.87 790.79 40.87 790.79 32.84 790.79 20.95 844.26 20.95 844.26 1 768.75 1 768.75 104.22 845.76 104.22 845.76 84.35 790.79 84.35"/><path class="cls-1" d="M699.07,488.67h-23L636.54,591.91h23l8.63-24.34H707l8.63,24.34h23Zm-11.44,25.84,12.12,33.65h-24.3Z" transform="translate(-536.12 -487.65)"/></svg>